<mxfile host="app.diagrams.net" modified="2021-08-17T08:01:34.690Z" agent="5.0 (Windows NT 6.1; Win64; x64) AppleWebKit/537.36 (KHTML, like Gecko) Chrome/92.0.4515.131 Safari/537.36" etag="vkr2nCfeULym5gFqKv0A" version="14.9.6" type="github">
  <diagram id="YgsiiTBiQtisjc4YwtwY" name="Page-1">
    <mxGraphModel dx="782" dy="482" grid="1" gridSize="10" guides="1" tooltips="1" connect="1" arrows="1" fold="1" page="1" pageScale="1" pageWidth="2339" pageHeight="3300" math="0" shadow="0">
      <root>
        <mxCell id="0" />
        <mxCell id="1" parent="0" />
        <mxCell id="LdWXyzBd7pIqgCOG_qvn-153" style="edgeStyle=orthogonalEdgeStyle;rounded=0;orthogonalLoop=1;jettySize=auto;html=1;exitX=1;exitY=0.25;exitDx=0;exitDy=0;" edge="1" parent="1" source="LdWXyzBd7pIqgCOG_qvn-154">
          <mxGeometry relative="1" as="geometry">
            <Array as="points">
              <mxPoint x="185" y="270" />
            </Array>
            <mxPoint x="642" y="271" as="targetPoint" />
          </mxGeometry>
        </mxCell>
        <mxCell id="LdWXyzBd7pIqgCOG_qvn-154" value="" style="rounded=0;whiteSpace=wrap;html=1;" vertex="1" parent="1">
          <mxGeometry x="115" y="230" width="70" height="120" as="geometry" />
        </mxCell>
        <mxCell id="LdWXyzBd7pIqgCOG_qvn-155" style="edgeStyle=orthogonalEdgeStyle;rounded=0;orthogonalLoop=1;jettySize=auto;html=1;" edge="1" parent="1" source="LdWXyzBd7pIqgCOG_qvn-156">
          <mxGeometry relative="1" as="geometry">
            <mxPoint x="185" y="320" as="targetPoint" />
            <Array as="points">
              <mxPoint x="535" y="320" />
              <mxPoint x="535" y="320" />
            </Array>
          </mxGeometry>
        </mxCell>
        <mxCell id="LdWXyzBd7pIqgCOG_qvn-156" value="" style="rounded=0;whiteSpace=wrap;html=1;" vertex="1" parent="1">
          <mxGeometry x="645" y="230" width="70" height="120" as="geometry" />
        </mxCell>
        <mxCell id="LdWXyzBd7pIqgCOG_qvn-157" value="RX" style="text;html=1;align=center;verticalAlign=middle;resizable=0;points=[];autosize=1;strokeColor=none;" vertex="1" parent="1">
          <mxGeometry x="645" y="260" width="30" height="20" as="geometry" />
        </mxCell>
        <mxCell id="LdWXyzBd7pIqgCOG_qvn-158" value="&lt;span style=&quot;color: rgb(0, 0, 0); font-family: helvetica; font-size: 12px; font-style: normal; font-weight: 400; letter-spacing: normal; text-align: center; text-indent: 0px; text-transform: none; word-spacing: 0px; background-color: rgb(248, 249, 250); display: inline; float: none;&quot;&gt;MCU1&lt;/span&gt;" style="text;whiteSpace=wrap;html=1;" vertex="1" parent="1">
          <mxGeometry x="140" y="350" width="60" height="30" as="geometry" />
        </mxCell>
        <mxCell id="LdWXyzBd7pIqgCOG_qvn-159" value="TX" style="text;html=1;align=center;verticalAlign=middle;resizable=0;points=[];autosize=1;strokeColor=none;" vertex="1" parent="1">
          <mxGeometry x="645" y="310" width="30" height="20" as="geometry" />
        </mxCell>
        <mxCell id="LdWXyzBd7pIqgCOG_qvn-160" value="RX" style="text;html=1;align=center;verticalAlign=middle;resizable=0;points=[];autosize=1;strokeColor=none;" vertex="1" parent="1">
          <mxGeometry x="155" y="310" width="30" height="20" as="geometry" />
        </mxCell>
        <mxCell id="LdWXyzBd7pIqgCOG_qvn-161" value="TX" style="text;html=1;align=center;verticalAlign=middle;resizable=0;points=[];autosize=1;strokeColor=none;" vertex="1" parent="1">
          <mxGeometry x="160" y="260" width="30" height="20" as="geometry" />
        </mxCell>
        <mxCell id="LdWXyzBd7pIqgCOG_qvn-178" value="&lt;b&gt;USART同步传输&lt;/b&gt;" style="text;html=1;align=center;verticalAlign=middle;resizable=0;points=[];autosize=1;strokeColor=none;" vertex="1" parent="1">
          <mxGeometry x="350" y="190" width="100" height="20" as="geometry" />
        </mxCell>
        <mxCell id="LdWXyzBd7pIqgCOG_qvn-202" value="" style="group" vertex="1" connectable="0" parent="1">
          <mxGeometry x="210" y="250" width="400" height="20" as="geometry" />
        </mxCell>
        <mxCell id="LdWXyzBd7pIqgCOG_qvn-162" value="" style="group" vertex="1" connectable="0" parent="LdWXyzBd7pIqgCOG_qvn-202">
          <mxGeometry x="40" width="360" height="20" as="geometry" />
        </mxCell>
        <mxCell id="LdWXyzBd7pIqgCOG_qvn-163" value="" style="group" vertex="1" connectable="0" parent="LdWXyzBd7pIqgCOG_qvn-162">
          <mxGeometry width="180" height="20" as="geometry" />
        </mxCell>
        <mxCell id="LdWXyzBd7pIqgCOG_qvn-165" value="1" style="rounded=0;whiteSpace=wrap;html=1;" vertex="1" parent="LdWXyzBd7pIqgCOG_qvn-163">
          <mxGeometry x="20" width="20" height="20" as="geometry" />
        </mxCell>
        <mxCell id="LdWXyzBd7pIqgCOG_qvn-166" value="0" style="rounded=0;whiteSpace=wrap;html=1;" vertex="1" parent="LdWXyzBd7pIqgCOG_qvn-163">
          <mxGeometry x="40" width="20" height="20" as="geometry" />
        </mxCell>
        <mxCell id="LdWXyzBd7pIqgCOG_qvn-167" value="0" style="rounded=0;whiteSpace=wrap;html=1;" vertex="1" parent="LdWXyzBd7pIqgCOG_qvn-163">
          <mxGeometry x="60" width="20" height="20" as="geometry" />
        </mxCell>
        <mxCell id="LdWXyzBd7pIqgCOG_qvn-168" value="0" style="rounded=0;whiteSpace=wrap;html=1;" vertex="1" parent="LdWXyzBd7pIqgCOG_qvn-163">
          <mxGeometry x="80" width="20" height="20" as="geometry" />
        </mxCell>
        <mxCell id="LdWXyzBd7pIqgCOG_qvn-169" value="0" style="rounded=0;whiteSpace=wrap;html=1;" vertex="1" parent="LdWXyzBd7pIqgCOG_qvn-163">
          <mxGeometry x="100" width="20" height="20" as="geometry" />
        </mxCell>
        <mxCell id="LdWXyzBd7pIqgCOG_qvn-170" value="0" style="rounded=0;whiteSpace=wrap;html=1;" vertex="1" parent="LdWXyzBd7pIqgCOG_qvn-163">
          <mxGeometry x="120" width="20" height="20" as="geometry" />
        </mxCell>
        <mxCell id="LdWXyzBd7pIqgCOG_qvn-171" value="0" style="rounded=0;whiteSpace=wrap;html=1;" vertex="1" parent="LdWXyzBd7pIqgCOG_qvn-163">
          <mxGeometry x="140" width="20" height="20" as="geometry" />
        </mxCell>
        <mxCell id="LdWXyzBd7pIqgCOG_qvn-172" value="0" style="rounded=0;whiteSpace=wrap;html=1;fillColor=#FFFFFF;" vertex="1" parent="LdWXyzBd7pIqgCOG_qvn-163">
          <mxGeometry x="160" width="20" height="20" as="geometry" />
        </mxCell>
        <mxCell id="LdWXyzBd7pIqgCOG_qvn-164" value="0" style="rounded=0;whiteSpace=wrap;html=1;fillColor=#999999;" vertex="1" parent="LdWXyzBd7pIqgCOG_qvn-163">
          <mxGeometry width="20" height="20" as="geometry" />
        </mxCell>
        <mxCell id="LdWXyzBd7pIqgCOG_qvn-179" value="" style="group" vertex="1" connectable="0" parent="LdWXyzBd7pIqgCOG_qvn-162">
          <mxGeometry x="160" width="200" height="20" as="geometry" />
        </mxCell>
        <mxCell id="LdWXyzBd7pIqgCOG_qvn-180" value="" style="group" vertex="1" connectable="0" parent="LdWXyzBd7pIqgCOG_qvn-179">
          <mxGeometry width="180" height="20" as="geometry" />
        </mxCell>
        <mxCell id="LdWXyzBd7pIqgCOG_qvn-182" value="1" style="rounded=0;whiteSpace=wrap;html=1;" vertex="1" parent="LdWXyzBd7pIqgCOG_qvn-180">
          <mxGeometry x="20" width="20" height="20" as="geometry" />
        </mxCell>
        <mxCell id="LdWXyzBd7pIqgCOG_qvn-183" value="0" style="rounded=0;whiteSpace=wrap;html=1;" vertex="1" parent="LdWXyzBd7pIqgCOG_qvn-180">
          <mxGeometry x="40" width="20" height="20" as="geometry" />
        </mxCell>
        <mxCell id="LdWXyzBd7pIqgCOG_qvn-184" value="0" style="rounded=0;whiteSpace=wrap;html=1;" vertex="1" parent="LdWXyzBd7pIqgCOG_qvn-180">
          <mxGeometry x="60" width="20" height="20" as="geometry" />
        </mxCell>
        <mxCell id="LdWXyzBd7pIqgCOG_qvn-185" value="0" style="rounded=0;whiteSpace=wrap;html=1;" vertex="1" parent="LdWXyzBd7pIqgCOG_qvn-180">
          <mxGeometry x="80" width="20" height="20" as="geometry" />
        </mxCell>
        <mxCell id="LdWXyzBd7pIqgCOG_qvn-186" value="0" style="rounded=0;whiteSpace=wrap;html=1;" vertex="1" parent="LdWXyzBd7pIqgCOG_qvn-180">
          <mxGeometry x="100" width="20" height="20" as="geometry" />
        </mxCell>
        <mxCell id="LdWXyzBd7pIqgCOG_qvn-187" value="0" style="rounded=0;whiteSpace=wrap;html=1;" vertex="1" parent="LdWXyzBd7pIqgCOG_qvn-180">
          <mxGeometry x="120" width="20" height="20" as="geometry" />
        </mxCell>
        <mxCell id="LdWXyzBd7pIqgCOG_qvn-188" value="0" style="rounded=0;whiteSpace=wrap;html=1;" vertex="1" parent="LdWXyzBd7pIqgCOG_qvn-180">
          <mxGeometry x="140" width="20" height="20" as="geometry" />
        </mxCell>
        <mxCell id="LdWXyzBd7pIqgCOG_qvn-189" value="0" style="rounded=0;whiteSpace=wrap;html=1;fillColor=#FFFFFF;" vertex="1" parent="LdWXyzBd7pIqgCOG_qvn-180">
          <mxGeometry x="160" width="20" height="20" as="geometry" />
        </mxCell>
        <mxCell id="LdWXyzBd7pIqgCOG_qvn-173" value="&lt;font style=&quot;font-size: 12px&quot;&gt;1&lt;/font&gt;" style="rounded=0;whiteSpace=wrap;html=1;fillColor=#999999;" vertex="1" parent="LdWXyzBd7pIqgCOG_qvn-179">
          <mxGeometry x="180" width="20" height="20" as="geometry" />
        </mxCell>
        <mxCell id="LdWXyzBd7pIqgCOG_qvn-198" value="syn" style="rounded=0;whiteSpace=wrap;html=1;fillColor=#B3FF66;" vertex="1" parent="LdWXyzBd7pIqgCOG_qvn-202">
          <mxGeometry width="20" height="20" as="geometry" />
        </mxCell>
        <mxCell id="LdWXyzBd7pIqgCOG_qvn-199" value="syn" style="rounded=0;whiteSpace=wrap;html=1;fillColor=#B3FF66;" vertex="1" parent="LdWXyzBd7pIqgCOG_qvn-202">
          <mxGeometry x="20" width="20" height="20" as="geometry" />
        </mxCell>
        <mxCell id="LdWXyzBd7pIqgCOG_qvn-207" value="MCU2" style="text;html=1;align=center;verticalAlign=middle;resizable=0;points=[];autosize=1;strokeColor=none;" vertex="1" parent="1">
          <mxGeometry x="655" y="350" width="50" height="20" as="geometry" />
        </mxCell>
      </root>
    </mxGraphModel>
  </diagram>
</mxfile>
